#!OML:ASF F:\VICON\USERDATA\INSTALL\rory3\rory3.ASF
:FULLY-SPECIFIED
:DEGREES
428
root -11.1625 17.9367 11.5429 -115.768 86.446 243.163
lowerback 10.6012 1.75338 3.11232
upperback 1.87602 2.77163 0.62768
thorax -3.86632 1.36642 -1.4772
lowerneck -10.7423 -3.19869 -12.7917
upperneck 42.0467 0.247242 3.38316
head 17.3767 -0.68417 4.15227
rclavicle -2.21334e-014 4.54099e-015
rhumerus -30.1928 -14.3419 -77.1464
rradius 36.21
rwrist 5.22277
rhand -14.6353 8.50601
rfingers 7.12502
rthumb 11.5164 -21.1576
lclavicle -2.21334e-014 4.54099e-015
lhumerus -34.2216 7.4068 79.7816
lradius 38.2465
lwrist -4.63052
lhand -17.9076 27.2936
lfingers 7.12502
lthumb 8.35952 57.1082
rfemur 6.63464 -1.10293 26.6375
rtibia 24.185
rfoot -10.9589 2.41453
rtoes -5.5475
lfemur -24.08 -3.77604 -20.0496
ltibia 25.3474
lfoot 2.46724 -8.49998
ltoes -0.282331
429
root -11.3262 17.8988 11.538 -105.727 86.0759 252.927
lowerback 10.7443 1.93356 3.80458
upperback 1.73858 3.10503 0.777943
thorax -4.04545 1.51749 -1.76224
lowerneck -10.5798 -3.32155 -12.896
upperneck 42.0685 0.0839038 3.37679
head 17.3729 -0.764347 4.14092
rclavicle 5.52808e-014 5.56597e-015
rhumerus -30.1026 -14.1771 -77.0621
rradius 36.0681
rwrist 5.22543
rhand -14.5142 8.61607
rfingers 7.12502
rthumb 11.6332 -21.041
lclavicle 5.52808e-014 5.56597e-015
lhumerus -33.9115 7.53172 80.0658
lradius 38.4708
lwrist -4.48954
lhand -18.7842 27.5606
lfingers 7.12502
lthumb 7.51348 57.4071
rfemur 6.21751 -0.628182 27.448
rtibia 23.4006
rfoot -11.4309 1.69894
rtoes -4.87993
lfemur -24.8977 -3.16077 -19.5302
ltibia 25.4216
lfoot 1.09674 -8.9036
ltoes -11.0892
430
root -11.4768 17.9015 11.5374 -103.146 86.1279 255.256
lowerback 10.7094 2.08237 3.83749
upperback 1.67619 3.30505 0.79136
thorax -4.07913 1.61363 -1.79338
lowerneck -10.3173 -3.46455 -12.8633
upperneck 41.9929 -0.152397 3.30132
head 17.2919 -0.858531 4.05399
rclavicle 2.66185e-014 2.88238e-015
rhumerus -30.052 -13.8475 -76.9597
rradius 35.9894
rwrist 5.21915
rhand -14.249 8.68507
rfingers 7.12502
rthumb 11.889 -20.9574
lclavicle 2.66185e-014 2.88238e-015
lhumerus -33.5342 7.55555 80.3428
lradius 38.6672
lwrist -4.22502
lhand -18.5896 26.9819
lfingers 7.12502
lthumb 7.70131 56.8217
rfemur 5.78438 -0.281749 27.5893
rtibia 22.7833
rfoot -11.8454 1.13278
rtoes -4.44935
lfemur -25.5213 -3.95161 -19.0268
ltibia 25.5023
lfoot 1.17163 -8.02142
ltoes -4.57804
431
root -11.6185 17.8911 11.5466 -100.04 86.2099 258.305
lowerback 10.7554 2.22475 3.65394
upperback 1.67963 3.47826 0.856844
thorax -4.10641 1.70173 -1.64817
lowerneck -10.0789 -3.58153 -12.8171
upperneck 41.9487 -0.336947 3.20568
head 17.2288 -0.933556 3.96646
rclavicle 5.25537e-015 5.81445e-015
rhumerus -29.9762 -13.402 -76.9073
rradius 35.7991
rwrist 5.41045
rhand -14.4214 8.5435
rfingers 7.12502
rthumb 11.7228 -21.1085
lclavicle 5.25537e-015 5.81445e-015
lhumerus -33.2494 7.74619 80.5628
lradius 38.8299
lwrist -4.24846
lhand -18.4708 26.4771
lfingers 7.12502
lthumb 7.81598 56.3126
rfemur 5.36898 0.145835 27.7119
rtibia 22.5884
rfoot -12.3218 0.647656
rtoes -4.01307
lfemur -25.8202 -4.35927 -18.7914
ltibia 25.5716
lfoot 0.392578 -7.6195
ltoes -5.26436
432
root -11.7574 17.8809 11.556 -93.8599 86.3933 264.505
lowerback 10.907 2.36582 3.38679
upperback 1.67859 3.63992 0.839652
thorax -4.19849 1.78308 -1.54659
lowerneck -9.98396 -3.6543 -12.8932
upperneck 42.0538 -0.470959 3.32697
head 17.2828 -0.985762 4.01963
rclavicle -6.31763e-014 1.28216e-014
rhumerus -29.8884 -13.0898 -76.9658
rradius 35.5557
rwrist 5.84407
rhand -14.804 8.15936
rfingers 7.12502
rthumb 11.3538 -21.5133
lclavicle -6.31763e-014 1.28216e-014
lhumerus -33.1303 8.05674 80.5927
lradius 39.1447
lwrist -4.24192
lhand -18.5387 26.7964
lfingers 7.12502
lthumb 7.75045 56.6343
rfemur 5.01931 0.699008 27.6873
rtibia 22.3924
rfoot -12.5861 0.348493
rtoes -4.22975
lfemur -25.974 -4.74975 -18.6507
ltibia 25.7333
lfoot -0.451021 -6.82922
ltoes -5.63144
433
root -11.8929 17.8759 11.5645 -90.1533 86.5849 268.275
lowerback 10.9794 2.43133 3.08426
upperback 1.7553 3.69295 0.824507
thorax -4.17389 1.81543 -1.40229
lowerneck -9.96714 -3.73373 -12.9618
upperneck 42.1868 -0.573992 3.37534
head 17.3718 -1.03609 4.04482
rclavicle -1.79155e-014 -1.49089e-016
rhumerus -29.7217 -12.7279 -76.9946
rradius 35.3446
rwrist 6.07285
rhand -14.8389 7.98666
rfingers 7.12502
rthumb 11.3201 -21.6878
lclavicle -1.79155e-014 -1.49089e-016
lhumerus -32.9459 8.53286 80.602
lradius 39.4892
lwrist -4.19242
lhand -18.1179 26.9403
lfingers 7.12502
lthumb 8.15651 56.7629
rfemur 4.62237 1.08248 27.5937
rtibia 22.4096
rfoot -12.9394 0.0412558
rtoes -5.20413
lfemur -26.0079 -4.95514 -18.673
ltibia 25.9321
lfoot -1.38202 -6.12516
ltoes -6.09072
434
root -12.0235 17.8774 11.5739 -90.5604 86.7756 267.96
lowerback 11.0679 2.45195 2.77933
upperback 1.78885 3.68661 0.805401
thorax -4.20596 1.81643 -1.25482
lowerneck -9.8354 -3.83259 -12.988
upperneck 42.351 -0.732894 3.44866
head 17.4551 -1.09597 4.06661
rclavicle -1.44616e-014 1.30701e-014
rhumerus -29.6264 -12.7059 -76.9485
rradius 35.0328
rwrist 6.27988
rhand -14.7335 8.05461
rfingers 7.12502
rthumb 11.4218 -21.6143
lclavicle -1.44616e-014 1.30701e-014
lhumerus -32.8317 8.87767 80.6772
lradius 39.812
lwrist -3.9612
lhand -18.2431 27.1584
lfingers 7.12502
lthumb 8.0357 56.9856
rfemur 4.21995 1.13535 27.4422
rtibia 22.5385
rfoot -13.3398 -0.134476
rtoes -5.52553
lfemur -25.9879 -5.14878 -18.7717
ltibia 26.2619
lfoot -2.3445 -5.49594
ltoes -7.05275
435
root -12.1499 17.878 11.5793 -96.1943 86.9615 262.453
lowerback 11.2087 2.38777 2.55059
upperback 1.7901 3.57815 0.776918
thorax -4.29893 1.76441 -1.14881
lowerneck -9.58724 -3.91984 -13.0364
upperneck 42.4212 -0.907603 3.54796
head 17.4554 -1.15848 4.09585
rclavicle -2.18912e-014 -9.93923e-015
rhumerus -29.6394 -12.5898 -76.8787
rradius 34.7442
rwrist 6.17247
rhand -14.8455 7.9439
rfingers 7.12502
rthumb 11.3137 -21.7309
lclavicle -2.18912e-014 -9.93923e-015
lhumerus -32.8353 9.00619 80.7937
lradius 40.1677
lwrist -3.43085
lhand -18.7822 27.1097
lfingers 7.12502
lthumb 7.51536 56.9562
rfemur 3.82448 0.935118 27.2532
rtibia 22.7264
rfoot -13.6391 -0.280054
rtoes -5.68692
lfemur -25.9517 -5.30671 -18.948
ltibia 26.7499
lfoot -3.11434 -5.10152
ltoes -6.53132
436
root -12.2751 17.8799 11.5785 -106.655 86.9417 252.1
lowerback 11.2561 2.20788 2.59541
upperback 1.83687 3.34469 0.723448
thorax -4.27854 1.64961 -1.1972
lowerneck -9.39471 -4.01179 -13.0339
upperneck 42.4557 -1.07354 3.57011
head 17.4474 -1.22093 4.07922
rclavicle 2.56681e-014 -2.2413e-014
rhumerus -29.5942 -12.804 -76.7942
rradius 34.4011
rwrist 6.41151
rhand -14.7429 7.91749
rfingers 7.12502
rthumb 11.4127 -21.7519
lclavicle 2.56681e-014 -2.2413e-014
lhumerus -32.7866 9.10245 80.8247
lradius 40.5361
lwrist -3.11561
lhand -18.5834 27.2564
lfingers 7.12502
lthumb 7.70726 57.096
rfemur 3.37822 0.547297 27.1957
rtibia 22.9288
rfoot -13.7862 -0.557895
rtoes -6.38701
lfemur -25.9836 -5.70505 -18.998
ltibia 27.4094
lfoot -3.64095 -4.80772
ltoes -4.42015
437
root -12.4 17.8873 11.5808 -112.451 86.8384 246.377
lowerback 11.2982 2.06596 2.62413
upperback 1.8536 3.16114 0.705554
thorax -4.28843 1.55881 -1.20718
lowerneck -9.29204 -4.07917 -13.0987
upperneck 42.5847 -1.1681 3.61858
head 17.5126 -1.26483 4.10505
rclavicle -2.07481e-015 1.02374e-014
rhumerus -29.5722 -13.1441 -76.7347
rradius 34.0575
rwrist 6.90649
rhand -14.6564 8.00991
rfingers 7.12502
rthumb 11.4961 -21.6549
lclavicle -2.07481e-015 1.02374e-014
lhumerus -32.739 9.25337 80.8294
lradius 40.7946
lwrist -2.70259
lhand -18.5553 27.6104
lfingers 7.12502
lthumb 7.73442 57.449
rfemur 2.90413 0.322228 27.2135
rtibia 23.1349
rfoot -13.7577 -0.724966
rtoes -6.80151
lfemur -26.0403 -6.1518 -18.8979
ltibia 28.2316
lfoot -4.10977 -4.31026
ltoes -2.6398
438
root -12.5233 17.9005 11.5878 -113.921 86.8109 245.032
lowerback 11.4481 2.00321 2.54711
upperback 1.85436 3.07436 0.704128
thorax -4.37778 1.51585 -1.15973
lowerneck -9.28506 -4.11975 -13.1619
upperneck 42.8216 -1.24382 3.78754
head 17.6637 -1.28805 4.19844
rclavicle 6.52262e-016 -1.54058e-014
rhumerus -29.6475 -13.427 -76.7131
rradius 33.8053
rwrist 7.1982
rhand -14.6669 8.14621
rfingers 7.12502
rthumb 11.486 -21.5191
lclavicle 6.52262e-016 -1.54058e-014
lhumerus -32.6722 9.31837 80.8793
lradius 40.9566
lwrist -2.02246
lhand -19.2482 27.8505
lfingers 7.12502
lthumb 7.06554 57.7126
rfemur 2.47312 0.231307 27.199
rtibia 23.3662
rfoot -13.6711 -0.64396
rtoes -6.63221
lfemur -26.0157 -6.04657 -18.877
ltibia 29.1858
lfoot -4.6312 -4.06017
ltoes -2.49044
